<svg xmlns="http://www.w3.org/2000/svg" viewBox="0 0 300.41869 66.37773">
  <g id="Layer_2" data-name="Layer 2">
    <g id="Layer_1-2" data-name="Layer 1">
      <g>
        <g>
          <path d="M86.8032,58.68877V8.82975h16.95317c15.45589,0,24.92951,10.11532,24.92951,24.92721,0,14.81649-9.47362,24.93181-24.92951,24.93181Zm10.25792-9.11713H103.899c9.18843,0,14.53129-6.33875,14.53129-15.81468,0-9.47133-5.34286-15.81008-14.53129-15.81008H97.06112Z" style="fill: #090a0f"/>
          <path d="M134.04944,39.88412c0-9.89913,6.69525-19.51766,19.01626-19.51766,12.965,0,19.01856,9.54493,19.01856,19.44866v3.48677H143.73467c.92689,5.27156,4.48727,7.98094,9.40233,7.98094a9.66328,9.66328,0,0,0,8.97453-4.84376l7.55084,4.84376c-3.27517,5.198-9.18843,8.11894-16.52537,8.11894C144.66156,59.40177,134.04944,53.98761,134.04944,39.88412Zm28.13339-4.416A8.64137,8.64137,0,0,0,153.2796,28.49c-4.34467,0-7.61984,2.208-9.18843,6.97815Z" style="fill: #090a0f"/>
          <path d="M234.285,33.97316V58.68877h-9.97273V35.46815c0-4.27337-1.35239-6.97815-5.34286-6.97815-5.26926,0-7.123,4.84376-7.123,10.61212V58.68877h-9.97043V35.46815c0-4.27337-1.426-6.97815-5.41416-6.97815-5.27156,0-7.05174,4.84376-7.05174,10.61212V58.68877H179.4396V21.07946h9.11713l1.42369,3.20617c2.06537-2.41958,5.34286-3.91917,9.54493-3.91917,4.70116,0,8.47544,1.92279,10.1843,5.69936,2.13671-3.27518,5.62808-5.69936,11.82423-5.69936C229.86672,20.36646,234.285,24.71343,234.285,33.97316Z" style="fill: #090a0f"/>
          <path d="M243.28712,16.30929V6.976h10.39822v9.33333Zm.2139,42.37948V21.07946h9.97042V58.68877Z" style="fill: #090a0f"/>
          <path d="M260.81759,39.88412a19.8026,19.8026,0,0,1,39.6011,0c0,10.68571-8.11894,19.51765-19.80055,19.51765S260.81759,50.56983,260.81759,39.88412Zm29.63067,0c0-7.19435-3.91917-11.25152-9.83012-11.25152S270.788,32.68977,270.788,39.88412c0,7.26794,3.91917,11.25611,9.83013,11.25611S290.44826,47.15206,290.44826,39.88412Z" style="fill: #090a0f"/>
        </g>
        <g>
          <path d="M30.9747,4.11859A13.04184,13.04184,0,0,1,44.00179,17.14572V35.41851a13.02709,13.02709,0,1,1-26.05418,0V17.14572A13.04184,13.04184,0,0,1,30.9747,4.11859M30.9747,0A17.14566,17.14566,0,0,0,13.829,17.14572V35.41851a17.14568,17.14568,0,1,0,34.29135,0V17.14572A17.14567,17.14567,0,0,0,30.9747,0Z" style="fill: #090a0f"/>
          <path d="M30.97334,38.16347a2.05908,2.05908,0,0,1-2.05984-2.05692V16.78427a2.05984,2.05984,0,0,1,4.11968,0V36.10655A2.05909,2.05909,0,0,1,30.97334,38.16347Z" style="fill: #090a0f"/>
          <path d="M30.97334,66.37773A31.01073,31.01073,0,0,1,0,35.40148a2.05984,2.05984,0,0,1,4.11968,0,26.85464,26.85464,0,0,0,53.61991,2.19677c.06118-.72837.09032-1.45674.09032-2.19677a2.05984,2.05984,0,0,1,4.11968,0c0,.85657-.035,1.70148-.10489,2.52891A31.1195,31.1195,0,0,1,30.97334,66.37773Z" style="fill: #090a0f"/>
        </g>
      </g>
    </g>
  </g>
</svg>
